# xmcd CD database file
#
# Track frame offsets:
#	150
#	10424
#	21534
#	32060
#	43661
#	55540
#	69293
#	81840
#	94351
#	108583
#	118931
#	130768
#	142531
#	156053
#	165783
#	184267
#	210711
#	223392
#	233569
#	243990
#
# Disc length: 3405 seconds
#
# Revision: 2
# Processed by: cddbd v1.5.2PL0 Copyright (c) Steve Scherf et al.
# Submitted via: CDex 1.70beta2
#
DISCID=0f0d4b14
DTITLE=Ray Charles - The Absolutely Essential Collection - CD3
DYEAR=2010
DGENRE=Blues
TTITLE0=Ain't That Fine
TTITLE1=Here I Am
TTITLE2=The Ego Song
TTITLE3=See See Rider
TTITLE4=I'll Do Anything But Work
TTITLE5=Misery In My Heart
TTITLE6=Jumpin' In The Mornin'
TTITLE7=Rockin' Chair Blues
TTITLE8=Kissa Me Baby
TTITLE9=Hey Now
TTITLE10=The Sun's Gonna Shine Again
TTITLE11=Roll With Me Baby
TTITLE12=The Midnight Hour
TTITLE13=I Want To Know
TTITLE14=Sweet Sixteen Bars
TTITLE15=Doodlin' Pts. 1 and 2
TTITLE16=Can Anyone Ask For More?
TTITLE17=It's All Right
TTITLE18=Get On The Right Track, Baby
TTITLE19=What Have I Done?
EXTD=YEAR: 2010
EXTT0=
EXTT1=
EXTT2=
EXTT3=
EXTT4=
EXTT5=
EXTT6=
EXTT7=
EXTT8=
EXTT9=
EXTT10=
EXTT11=
EXTT12=
EXTT13=
EXTT14=
EXTT15=
EXTT16=
EXTT17=
EXTT18=
EXTT19=
PLAYORDER=
